<svg xmlns:dc="http://purl.org/dc/elements/1.1/" xmlns:cc="http://creativecommons.org/ns#" xmlns:rdf="http://www.w3.org/1999/02/22-rdf-syntax-ns#" xmlns:svg="http://www.w3.org/2000/svg" xmlns="http://www.w3.org/2000/svg" xmlns:sodipodi="http://sodipodi.sourceforge.net/DTD/sodipodi-0.dtd" xmlns:inkscape="http://www.inkscape.org/namespaces/inkscape" viewBox="0 0 80 80" version="1.1" x="0px" y="0px"><path style="text-indent:0;text-transform:none;direction:ltr;block-progression:tb;baseline-shift:baseline;color:#000000;enable-background:accumulate;" d="m 73.15,22.2 -67.025,8.975 -0.725,0.1 0.475,0.55 c 0.1872584,0.218468 0.4856789,0.437738 0.925,0.75 0.4393211,0.312262 1.0194884,0.698918 1.675,1.125 1.3110232,0.852165 2.948609,1.877867 4.575,2.875 3.125809,1.916418 5.919194,3.56313 6.15,3.7 l -2.25,7.75 -0.25,0.825 0.8,-0.35 7.225,-3.3 0.1,6.325 0,0.7 0.6,-0.35 47.7,-28.775 0.2,-0.1 0,-0.025 0.075,-0.05 -0.25,-0.725 z m -2.525,1.15 -52.65,24.05 2.05,-7.2 0.1,-0.3 -0.275,-0.175 c 0,0 -3.12875,-1.85974 -6.375,-3.85 -1.623125,-0.99513 -3.274805,-2.004873 -4.575,-2.85 -0.6500976,-0.422563 -1.2011683,-0.798747 -1.625,-1.1 -0.053179,-0.0378 -0.050859,-0.0389 -0.1,-0.075 l 63.45,-8.5 z M 66.75,26 25.625,50.825 l -0.1,-6 L 66.75,26 z" fill="#000000" fill-opacity="1" stroke="none" marker="none" visibility="visible" display="inline" overflow="visible"></path><path style="text-indent:0;text-transform:none;direction:ltr;block-progression:tb;baseline-shift:baseline;color:#000000;enable-background:accumulate;" d="m 73.05,22.45 -53.5,17.425 0.125,0.4 53.5,-17.45 -0.125,-0.375 z" fill="#000000" fill-opacity="1" stroke="none" marker="none" visibility="visible" display="inline" overflow="visible"></path></svg>